<svg width="40" height="40" viewBox="0 0 40 40" fill="none" xmlns="http://www.w3.org/2000/svg">
<rect x="1" y="1" width="38" height="38" rx="19" fill="white" stroke="#E7F0FF" stroke-width="2"/>
<path d="M20 16.75C19.3572 16.75 18.7289 16.9406 18.1944 17.2977C17.6599 17.6548 17.2434 18.1624 16.9974 18.7563C16.7514 19.3501 16.6871 20.0036 16.8125 20.634C16.9379 21.2645 17.2474 21.8436 17.7019 22.2981C18.1564 22.7526 18.7355 23.0621 19.366 23.1875C19.9964 23.3129 20.6499 23.2486 21.2437 23.0026C21.8376 22.7566 22.3452 22.3401 22.7023 21.8056C23.0594 21.2711 23.25 20.6428 23.25 20C23.249 19.1383 22.9063 18.3123 22.297 17.703C21.6877 17.0937 20.8617 16.751 20 16.75ZM20 21.75C19.6539 21.75 19.3155 21.6474 19.0278 21.4551C18.74 21.2628 18.5157 20.9895 18.3832 20.6697C18.2508 20.3499 18.2161 19.9981 18.2836 19.6586C18.3512 19.3191 18.5178 19.0073 18.7626 18.7626C19.0073 18.5178 19.3191 18.3511 19.6586 18.2836C19.9981 18.2161 20.3499 18.2508 20.6697 18.3832C20.9895 18.5157 21.2628 18.74 21.4551 19.0277C21.6474 19.3155 21.75 19.6539 21.75 20C21.75 20.4641 21.5656 20.9092 21.2374 21.2374C20.9093 21.5656 20.4641 21.75 20 21.75ZM27.1163 18.6519C27.0951 18.5462 27.0514 18.4464 26.9882 18.3591C26.925 18.2719 26.8438 18.1993 26.75 18.1462L25.0131 17.1556L25.0063 15.1987C25.0059 15.0902 24.9819 14.983 24.9361 14.8846C24.8902 14.7861 24.8235 14.6989 24.7406 14.6287C24.0407 14.0365 23.2348 13.5825 22.3656 13.2906C22.2665 13.2572 22.1614 13.2448 22.0572 13.2544C21.9531 13.264 21.852 13.2953 21.7606 13.3462L20 14.3294L18.2394 13.3456C18.1479 13.2944 18.0466 13.2629 17.9422 13.2532C17.8378 13.2435 17.7325 13.2558 17.6331 13.2894C16.7637 13.5824 15.9578 14.0378 15.2581 14.6312C15.1755 14.7013 15.109 14.7884 15.0633 14.8866C15.0175 14.9848 14.9936 15.0917 14.9931 15.2L14.9844 17.1587L13.25 18.1469C13.1562 18.2001 13.075 18.2729 13.0119 18.3604C12.9488 18.4479 12.9053 18.5479 12.8844 18.6537C12.7078 19.5432 12.7078 20.4587 12.8844 21.3481C12.9055 21.4537 12.949 21.5535 13.0121 21.6408C13.0752 21.728 13.1563 21.8006 13.25 21.8537L14.9888 22.8444L14.9956 24.8012C14.996 24.9098 15.02 25.017 15.0658 25.1154C15.1117 25.2138 15.1784 25.3011 15.2613 25.3712C15.9612 25.9634 16.7671 26.4175 17.6363 26.7094C17.7354 26.7428 17.8404 26.7551 17.9446 26.7456C18.0488 26.736 18.1499 26.7047 18.2413 26.6537L20 25.6706L21.7588 26.6544C21.8503 26.7056 21.9515 26.7371 22.0559 26.7468C22.1603 26.7565 22.2656 26.7442 22.365 26.7106C23.2344 26.4176 24.0403 25.9622 24.74 25.3687C24.8226 25.2987 24.8891 25.2116 24.9348 25.1134C24.9806 25.0152 25.0045 24.9083 25.005 24.8L25.0138 22.8412L26.7519 21.8531C26.8457 21.7999 26.9269 21.7271 26.99 21.6396C27.0531 21.5521 27.0966 21.4521 27.1175 21.3462C27.2937 20.4567 27.2932 19.5412 27.1163 18.6519ZM25.7019 20.7256L24.0219 21.6806C23.9025 21.7483 23.8041 21.8475 23.7375 21.9675C23.7038 22.03 23.6681 22.0881 23.6313 22.1475C23.5572 22.2658 23.5176 22.4023 23.5169 22.5419L23.5081 24.4375C23.1038 24.7418 22.661 24.9912 22.1913 25.1794L20.4944 24.23C20.3825 24.1673 20.2564 24.1344 20.1281 24.1344H20.11C20.0388 24.1344 19.9663 24.1344 19.895 24.1344C19.761 24.1312 19.6285 24.1638 19.5113 24.2287L17.8125 25.1762C17.342 24.989 16.8982 24.7406 16.4925 24.4375L16.4856 22.5475C16.4851 22.4077 16.4454 22.2709 16.3713 22.1525C16.335 22.0937 16.2988 22.0331 16.265 21.9725C16.1983 21.8533 16.1002 21.7547 15.9813 21.6875L14.3 20.7269C14.2347 20.2449 14.2347 19.7563 14.3 19.2744L15.98 18.3194C16.0992 18.2517 16.1975 18.1527 16.2644 18.0331C16.2981 17.9706 16.3338 17.9119 16.3706 17.8525C16.4447 17.7342 16.4843 17.5977 16.485 17.4581L16.4919 15.5625C16.8964 15.2591 17.3391 15.0105 17.8088 14.8231L19.5056 15.7725C19.6228 15.8383 19.7557 15.8711 19.89 15.8675C19.9613 15.8675 20.0338 15.8675 20.105 15.8675C20.239 15.8707 20.3715 15.8381 20.4888 15.7731L22.1875 14.8237C22.658 15.011 23.1018 15.2594 23.5075 15.5625L23.5144 17.4525C23.515 17.5922 23.5546 17.7291 23.6288 17.8475C23.665 17.9062 23.7013 17.9669 23.735 18.0275C23.8017 18.1467 23.8998 18.2453 24.0188 18.3125L25.7 19.2706C25.7662 19.7533 25.7668 20.2427 25.7019 20.7256Z" fill="#344054"/>
</svg>
